<?xml version="1.0" encoding="utf-8"?>
<!-- Generator: Adobe Illustrator 23.0.1, SVG Export Plug-In . SVG Version: 6.00 Build 0)  -->
<svg version="1.1" id="Layer_1" xmlns="http://www.w3.org/2000/svg" xmlns:xlink="http://www.w3.org/1999/xlink" x="0px" y="0px"
	 viewBox="0 0 569.39 167.78" style="enable-background:new 0 0 569.39 167.78;" xml:space="preserve">
<style type="text/css">
	.st0{fill:none;stroke:#000000;stroke-width:10;stroke-miterlimit:10;}
</style>
<g>
	<path d="M117,47.27v13.89H80.7v17.36h31.46v12.83H80.7v31.03H64.19V47.27H117z"/>
	<path d="M118.99,69.52c1.68-4.8,4.1-8.99,7.26-12.57c3.16-3.58,7.03-6.38,11.62-8.42c4.59-2.03,9.77-3.05,15.52-3.05
		c5.82,0,11.01,1.02,15.57,3.05c4.56,2.04,8.42,4.84,11.57,8.42c3.16,3.58,5.58,7.77,7.26,12.57c1.68,4.8,2.52,10.01,2.52,15.62
		c0,5.47-0.84,10.57-2.52,15.31c-1.68,4.73-4.1,8.85-7.26,12.36c-3.16,3.51-7.01,6.26-11.57,8.26c-4.56,2-9.75,3-15.57,3
		c-5.75,0-10.92-1-15.52-3c-4.59-2-8.47-4.75-11.62-8.26c-3.16-3.51-5.58-7.63-7.26-12.36c-1.68-4.73-2.52-9.84-2.52-15.31
		C116.47,79.53,117.31,74.32,118.99,69.52z M134.09,94.35c0.74,2.98,1.91,5.66,3.52,8.05c1.61,2.39,3.72,4.3,6.31,5.73
		c2.59,1.44,5.75,2.16,9.47,2.16c3.72,0,6.87-0.72,9.47-2.16c2.59-1.44,4.7-3.35,6.31-5.73c1.61-2.38,2.79-5.07,3.52-8.05
		c0.74-2.98,1.1-6.05,1.1-9.21c0-3.3-0.37-6.49-1.1-9.57c-0.74-3.08-1.91-5.84-3.52-8.26c-1.61-2.42-3.72-4.35-6.31-5.79
		c-2.6-1.44-5.75-2.16-9.47-2.16c-3.72,0-6.87,0.72-9.47,2.16c-2.6,1.44-4.7,3.37-6.31,5.79c-1.61,2.42-2.79,5.17-3.52,8.26
		c-0.74,3.09-1.1,6.28-1.1,9.57C132.99,88.3,133.35,91.37,134.09,94.35z"/>
	<path d="M186.74,61.16V47.27h61.54v13.89h-22.51v61.23h-16.52V61.16H186.74z"/>
	<path d="M247.23,69.52c1.68-4.8,4.1-8.99,7.26-12.57c3.16-3.58,7.03-6.38,11.62-8.42c4.59-2.03,9.77-3.05,15.52-3.05
		c5.82,0,11.01,1.02,15.57,3.05c4.56,2.04,8.42,4.84,11.57,8.42c3.16,3.58,5.58,7.77,7.26,12.57c1.68,4.8,2.52,10.01,2.52,15.62
		c0,5.47-0.84,10.57-2.52,15.31c-1.68,4.73-4.1,8.85-7.26,12.36c-3.16,3.51-7.01,6.26-11.57,8.26c-4.56,2-9.75,3-15.57,3
		c-5.75,0-10.92-1-15.52-3c-4.59-2-8.47-4.75-11.62-8.26c-3.16-3.51-5.58-7.63-7.26-12.36c-1.68-4.73-2.52-9.84-2.52-15.31
		C244.71,79.53,245.55,74.32,247.23,69.52z M262.33,94.35c0.74,2.98,1.91,5.66,3.52,8.05c1.61,2.39,3.72,4.3,6.31,5.73
		c2.59,1.44,5.75,2.16,9.47,2.16c3.72,0,6.87-0.72,9.47-2.16c2.59-1.44,4.7-3.35,6.31-5.73c1.61-2.38,2.79-5.07,3.52-8.05
		c0.74-2.98,1.1-6.05,1.1-9.21c0-3.3-0.37-6.49-1.1-9.57c-0.74-3.08-1.91-5.84-3.52-8.26c-1.61-2.42-3.72-4.35-6.31-5.79
		c-2.6-1.44-5.75-2.16-9.47-2.16c-3.72,0-6.87,0.72-9.47,2.16c-2.6,1.44-4.7,3.37-6.31,5.79c-1.61,2.42-2.79,5.17-3.52,8.26
		c-0.74,3.09-1.1,6.28-1.1,9.57C261.22,88.3,261.59,91.37,262.33,94.35z"/>
	<path d="M373.26,67.31c-0.98-1.58-2.21-2.96-3.68-4.16c-1.47-1.19-3.14-2.12-5-2.79c-1.86-0.67-3.81-1-5.84-1
		c-3.72,0-6.87,0.72-9.47,2.16c-2.6,1.44-4.7,3.37-6.31,5.79c-1.61,2.42-2.79,5.17-3.52,8.26c-0.74,3.09-1.1,6.28-1.1,9.57
		c0,3.16,0.37,6.23,1.1,9.21c0.74,2.98,1.91,5.66,3.52,8.05c1.61,2.39,3.72,4.3,6.31,5.73c2.59,1.44,5.75,2.16,9.47,2.16
		c5.05,0,8.99-1.54,11.84-4.63c2.84-3.08,4.58-7.15,5.21-12.2h15.99c-0.42,4.7-1.51,8.94-3.26,12.73c-1.75,3.79-4.07,7.01-6.94,9.68
		c-2.88,2.67-6.24,4.7-10.1,6.1c-3.86,1.4-8.1,2.1-12.73,2.1c-5.75,0-10.92-1-15.52-3c-4.59-2-8.47-4.75-11.62-8.26
		c-3.16-3.51-5.58-7.63-7.26-12.36c-1.68-4.73-2.52-9.84-2.52-15.31c0-5.61,0.84-10.82,2.52-15.62c1.68-4.8,4.1-8.99,7.26-12.57
		c3.16-3.58,7.03-6.38,11.62-8.42c4.59-2.03,9.77-3.05,15.52-3.05c4.14,0,8.05,0.6,11.73,1.79c3.68,1.19,6.98,2.93,9.89,5.21
		c2.91,2.28,5.31,5.1,7.21,8.47c1.89,3.37,3.09,7.22,3.58,11.57h-15.99C374.88,70.62,374.24,68.89,373.26,67.31z"/>
	<path d="M432.54,47.27l28.09,75.11h-17.15l-5.68-16.73h-28.09l-5.89,16.73H387.2l28.4-75.11H432.54z M433.49,93.35l-9.47-27.56
		h-0.21l-9.78,27.56H433.49z"/>
	<path d="M480.04,47.27v61.23h36.61v13.89h-53.13V47.27H480.04z"/>
</g>
<line class="st0" x1="14.93" y1="146.81" x2="553.72" y2="146.81"/>
<line class="st0" x1="14.93" y1="20.5" x2="553.72" y2="20.5"/>
</svg>
